<?xml version='1.0' encoding='utf-8'?>
<svg xmlns="http://www.w3.org/2000/svg" width="960" height="370" viewBox="0 0 960 370" role="img" aria-labelledby="title desc" lang="te" font-family="Nirmala UI, Noto Sans Telugu, sans-serif">
  <title id="title">వందలు, పదులు, ఒకట్లు / Base-ten block model</title>
  <desc id="desc">వందలు: 2; పదులు: 3; ఒకట్లు: 7. 2 hundreds squares of 100 unit cells each; 3 tens rods of 10 cells each; 7 single units. The visible diagram does not print the answer.</desc>
  <rect width="960" height="370" fill="white" />
  <text x="160" y="40" font-size="27" fill="#153a4b" text-anchor="middle">వందలు</text>
  <text x="160" y="65" font-size="17" fill="#526573" text-anchor="middle">hundreds</text>
  <g data-kind="hundred" data-value="100">
    <rect x="31.0" y="128" width="12" height="12" fill="#d9f0f0" stroke="#23676b" stroke-width="0.8" data-cell="1" data-row="0" data-col="0" />
    <rect x="43.0" y="128" width="12" height="12" fill="#d9f0f0" stroke="#23676b" stroke-width="0.8" data-cell="1" data-row="0" data-col="1" />
    <rect x="55.0" y="128" width="12" height="12" fill="#d9f0f0" stroke="#23676b" stroke-width="0.8" data-cell="1" data-row="0" data-col="2" />
    <rect x="67.0" y="128" width="12" height="12" fill="#d9f0f0" stroke="#23676b" stroke-width="0.8" data-cell="1" data-row="0" data-col="3" />
    <rect x="79.0" y="128" width="12" height="12" fill="#d9f0f0" stroke="#23676b" stroke-width="0.8" data-cell="1" data-row="0" data-col="4" />
    <rect x="91.0" y="128" width="12" height="12" fill="#d9f0f0" stroke="#23676b" stroke-width="0.8" data-cell="1" data-row="0" data-col="5" />
    <rect x="103.0" y="128" width="12" height="12" fill="#d9f0f0" stroke="#23676b" stroke-width="0.8" data-cell="1" data-row="0" data-col="6" />
    <rect x="115.0" y="128" width="12" height="12" fill="#d9f0f0" stroke="#23676b" stroke-width="0.8" data-cell="1" data-row="0" data-col="7" />
    <rect x="127.0" y="128" width="12" height="12" fill="#d9f0f0" stroke="#23676b" stroke-width="0.8" data-cell="1" data-row="0" data-col="8" />
    <rect x="139.0" y="128" width="12" height="12" fill="#d9f0f0" stroke="#23676b" stroke-width="0.8" data-cell="1" data-row="0" data-col="9" />
    <rect x="31.0" y="140" width="12" height="12" fill="#d9f0f0" stroke="#23676b" stroke-width="0.8" data-cell="1" data-row="1" data-col="0" />
    <rect x="43.0" y="140" width="12" height="12" fill="#d9f0f0" stroke="#23676b" stroke-width="0.8" data-cell="1" data-row="1" data-col="1" />
    <rect x="55.0" y="140" width="12" height="12" fill="#d9f0f0" stroke="#23676b" stroke-width="0.8" data-cell="1" data-row="1" data-col="2" />
    <rect x="67.0" y="140" width="12" height="12" fill="#d9f0f0" stroke="#23676b" stroke-width="0.8" data-cell="1" data-row="1" data-col="3" />
    <rect x="79.0" y="140" width="12" height="12" fill="#d9f0f0" stroke="#23676b" stroke-width="0.8" data-cell="1" data-row="1" data-col="4" />
    <rect x="91.0" y="140" width="12" height="12" fill="#d9f0f0" stroke="#23676b" stroke-width="0.8" data-cell="1" data-row="1" data-col="5" />
    <rect x="103.0" y="140" width="12" height="12" fill="#d9f0f0" stroke="#23676b" stroke-width="0.8" data-cell="1" data-row="1" data-col="6" />
    <rect x="115.0" y="140" width="12" height="12" fill="#d9f0f0" stroke="#23676b" stroke-width="0.8" data-cell="1" data-row="1" data-col="7" />
    <rect x="127.0" y="140" width="12" height="12" fill="#d9f0f0" stroke="#23676b" stroke-width="0.8" data-cell="1" data-row="1" data-col="8" />
    <rect x="139.0" y="140" width="12" height="12" fill="#d9f0f0" stroke="#23676b" stroke-width="0.8" data-cell="1" data-row="1" data-col="9" />
    <rect x="31.0" y="152" width="12" height="12" fill="#d9f0f0" stroke="#23676b" stroke-width="0.8" data-cell="1" data-row="2" data-col="0" />
    <rect x="43.0" y="152" width="12" height="12" fill="#d9f0f0" stroke="#23676b" stroke-width="0.8" data-cell="1" data-row="2" data-col="1" />
    <rect x="55.0" y="152" width="12" height="12" fill="#d9f0f0" stroke="#23676b" stroke-width="0.8" data-cell="1" data-row="2" data-col="2" />
    <rect x="67.0" y="152" width="12" height="12" fill="#d9f0f0" stroke="#23676b" stroke-width="0.8" data-cell="1" data-row="2" data-col="3" />
    <rect x="79.0" y="152" width="12" height="12" fill="#d9f0f0" stroke="#23676b" stroke-width="0.8" data-cell="1" data-row="2" data-col="4" />
    <rect x="91.0" y="152" width="12" height="12" fill="#d9f0f0" stroke="#23676b" stroke-width="0.8" data-cell="1" data-row="2" data-col="5" />
    <rect x="103.0" y="152" width="12" height="12" fill="#d9f0f0" stroke="#23676b" stroke-width="0.8" data-cell="1" data-row="2" data-col="6" />
    <rect x="115.0" y="152" width="12" height="12" fill="#d9f0f0" stroke="#23676b" stroke-width="0.8" data-cell="1" data-row="2" data-col="7" />
    <rect x="127.0" y="152" width="12" height="12" fill="#d9f0f0" stroke="#23676b" stroke-width="0.8" data-cell="1" data-row="2" data-col="8" />
    <rect x="139.0" y="152" width="12" height="12" fill="#d9f0f0" stroke="#23676b" stroke-width="0.8" data-cell="1" data-row="2" data-col="9" />
    <rect x="31.0" y="164" width="12" height="12" fill="#d9f0f0" stroke="#23676b" stroke-width="0.8" data-cell="1" data-row="3" data-col="0" />
    <rect x="43.0" y="164" width="12" height="12" fill="#d9f0f0" stroke="#23676b" stroke-width="0.8" data-cell="1" data-row="3" data-col="1" />
    <rect x="55.0" y="164" width="12" height="12" fill="#d9f0f0" stroke="#23676b" stroke-width="0.8" data-cell="1" data-row="3" data-col="2" />
    <rect x="67.0" y="164" width="12" height="12" fill="#d9f0f0" stroke="#23676b" stroke-width="0.8" data-cell="1" data-row="3" data-col="3" />
    <rect x="79.0" y="164" width="12" height="12" fill="#d9f0f0" stroke="#23676b" stroke-width="0.8" data-cell="1" data-row="3" data-col="4" />
    <rect x="91.0" y="164" width="12" height="12" fill="#d9f0f0" stroke="#23676b" stroke-width="0.8" data-cell="1" data-row="3" data-col="5" />
    <rect x="103.0" y="164" width="12" height="12" fill="#d9f0f0" stroke="#23676b" stroke-width="0.8" data-cell="1" data-row="3" data-col="6" />
    <rect x="115.0" y="164" width="12" height="12" fill="#d9f0f0" stroke="#23676b" stroke-width="0.8" data-cell="1" data-row="3" data-col="7" />
    <rect x="127.0" y="164" width="12" height="12" fill="#d9f0f0" stroke="#23676b" stroke-width="0.8" data-cell="1" data-row="3" data-col="8" />
    <rect x="139.0" y="164" width="12" height="12" fill="#d9f0f0" stroke="#23676b" stroke-width="0.8" data-cell="1" data-row="3" data-col="9" />
    <rect x="31.0" y="176" width="12" height="12" fill="#d9f0f0" stroke="#23676b" stroke-width="0.8" data-cell="1" data-row="4" data-col="0" />
    <rect x="43.0" y="176" width="12" height="12" fill="#d9f0f0" stroke="#23676b" stroke-width="0.8" data-cell="1" data-row="4" data-col="1" />
    <rect x="55.0" y="176" width="12" height="12" fill="#d9f0f0" stroke="#23676b" stroke-width="0.8" data-cell="1" data-row="4" data-col="2" />
    <rect x="67.0" y="176" width="12" height="12" fill="#d9f0f0" stroke="#23676b" stroke-width="0.8" data-cell="1" data-row="4" data-col="3" />
    <rect x="79.0" y="176" width="12" height="12" fill="#d9f0f0" stroke="#23676b" stroke-width="0.8" data-cell="1" data-row="4" data-col="4" />
    <rect x="91.0" y="176" width="12" height="12" fill="#d9f0f0" stroke="#23676b" stroke-width="0.8" data-cell="1" data-row="4" data-col="5" />
    <rect x="103.0" y="176" width="12" height="12" fill="#d9f0f0" stroke="#23676b" stroke-width="0.8" data-cell="1" data-row="4" data-col="6" />
    <rect x="115.0" y="176" width="12" height="12" fill="#d9f0f0" stroke="#23676b" stroke-width="0.8" data-cell="1" data-row="4" data-col="7" />
    <rect x="127.0" y="176" width="12" height="12" fill="#d9f0f0" stroke="#23676b" stroke-width="0.8" data-cell="1" data-row="4" data-col="8" />
    <rect x="139.0" y="176" width="12" height="12" fill="#d9f0f0" stroke="#23676b" stroke-width="0.8" data-cell="1" data-row="4" data-col="9" />
    <rect x="31.0" y="188" width="12" height="12" fill="#d9f0f0" stroke="#23676b" stroke-width="0.8" data-cell="1" data-row="5" data-col="0" />
    <rect x="43.0" y="188" width="12" height="12" fill="#d9f0f0" stroke="#23676b" stroke-width="0.8" data-cell="1" data-row="5" data-col="1" />
    <rect x="55.0" y="188" width="12" height="12" fill="#d9f0f0" stroke="#23676b" stroke-width="0.8" data-cell="1" data-row="5" data-col="2" />
    <rect x="67.0" y="188" width="12" height="12" fill="#d9f0f0" stroke="#23676b" stroke-width="0.8" data-cell="1" data-row="5" data-col="3" />
    <rect x="79.0" y="188" width="12" height="12" fill="#d9f0f0" stroke="#23676b" stroke-width="0.8" data-cell="1" data-row="5" data-col="4" />
    <rect x="91.0" y="188" width="12" height="12" fill="#d9f0f0" stroke="#23676b" stroke-width="0.8" data-cell="1" data-row="5" data-col="5" />
    <rect x="103.0" y="188" width="12" height="12" fill="#d9f0f0" stroke="#23676b" stroke-width="0.8" data-cell="1" data-row="5" data-col="6" />
    <rect x="115.0" y="188" width="12" height="12" fill="#d9f0f0" stroke="#23676b" stroke-width="0.8" data-cell="1" data-row="5" data-col="7" />
    <rect x="127.0" y="188" width="12" height="12" fill="#d9f0f0" stroke="#23676b" stroke-width="0.8" data-cell="1" data-row="5" data-col="8" />
    <rect x="139.0" y="188" width="12" height="12" fill="#d9f0f0" stroke="#23676b" stroke-width="0.8" data-cell="1" data-row="5" data-col="9" />
    <rect x="31.0" y="200" width="12" height="12" fill="#d9f0f0" stroke="#23676b" stroke-width="0.8" data-cell="1" data-row="6" data-col="0" />
    <rect x="43.0" y="200" width="12" height="12" fill="#d9f0f0" stroke="#23676b" stroke-width="0.8" data-cell="1" data-row="6" data-col="1" />
    <rect x="55.0" y="200" width="12" height="12" fill="#d9f0f0" stroke="#23676b" stroke-width="0.8" data-cell="1" data-row="6" data-col="2" />
    <rect x="67.0" y="200" width="12" height="12" fill="#d9f0f0" stroke="#23676b" stroke-width="0.8" data-cell="1" data-row="6" data-col="3" />
    <rect x="79.0" y="200" width="12" height="12" fill="#d9f0f0" stroke="#23676b" stroke-width="0.8" data-cell="1" data-row="6" data-col="4" />
    <rect x="91.0" y="200" width="12" height="12" fill="#d9f0f0" stroke="#23676b" stroke-width="0.8" data-cell="1" data-row="6" data-col="5" />
    <rect x="103.0" y="200" width="12" height="12" fill="#d9f0f0" stroke="#23676b" stroke-width="0.8" data-cell="1" data-row="6" data-col="6" />
    <rect x="115.0" y="200" width="12" height="12" fill="#d9f0f0" stroke="#23676b" stroke-width="0.8" data-cell="1" data-row="6" data-col="7" />
    <rect x="127.0" y="200" width="12" height="12" fill="#d9f0f0" stroke="#23676b" stroke-width="0.8" data-cell="1" data-row="6" data-col="8" />
    <rect x="139.0" y="200" width="12" height="12" fill="#d9f0f0" stroke="#23676b" stroke-width="0.8" data-cell="1" data-row="6" data-col="9" />
    <rect x="31.0" y="212" width="12" height="12" fill="#d9f0f0" stroke="#23676b" stroke-width="0.8" data-cell="1" data-row="7" data-col="0" />
    <rect x="43.0" y="212" width="12" height="12" fill="#d9f0f0" stroke="#23676b" stroke-width="0.8" data-cell="1" data-row="7" data-col="1" />
    <rect x="55.0" y="212" width="12" height="12" fill="#d9f0f0" stroke="#23676b" stroke-width="0.8" data-cell="1" data-row="7" data-col="2" />
    <rect x="67.0" y="212" width="12" height="12" fill="#d9f0f0" stroke="#23676b" stroke-width="0.8" data-cell="1" data-row="7" data-col="3" />
    <rect x="79.0" y="212" width="12" height="12" fill="#d9f0f0" stroke="#23676b" stroke-width="0.8" data-cell="1" data-row="7" data-col="4" />
    <rect x="91.0" y="212" width="12" height="12" fill="#d9f0f0" stroke="#23676b" stroke-width="0.8" data-cell="1" data-row="7" data-col="5" />
    <rect x="103.0" y="212" width="12" height="12" fill="#d9f0f0" stroke="#23676b" stroke-width="0.8" data-cell="1" data-row="7" data-col="6" />
    <rect x="115.0" y="212" width="12" height="12" fill="#d9f0f0" stroke="#23676b" stroke-width="0.8" data-cell="1" data-row="7" data-col="7" />
    <rect x="127.0" y="212" width="12" height="12" fill="#d9f0f0" stroke="#23676b" stroke-width="0.8" data-cell="1" data-row="7" data-col="8" />
    <rect x="139.0" y="212" width="12" height="12" fill="#d9f0f0" stroke="#23676b" stroke-width="0.8" data-cell="1" data-row="7" data-col="9" />
    <rect x="31.0" y="224" width="12" height="12" fill="#d9f0f0" stroke="#23676b" stroke-width="0.8" data-cell="1" data-row="8" data-col="0" />
    <rect x="43.0" y="224" width="12" height="12" fill="#d9f0f0" stroke="#23676b" stroke-width="0.8" data-cell="1" data-row="8" data-col="1" />
    <rect x="55.0" y="224" width="12" height="12" fill="#d9f0f0" stroke="#23676b" stroke-width="0.8" data-cell="1" data-row="8" data-col="2" />
    <rect x="67.0" y="224" width="12" height="12" fill="#d9f0f0" stroke="#23676b" stroke-width="0.8" data-cell="1" data-row="8" data-col="3" />
    <rect x="79.0" y="224" width="12" height="12" fill="#d9f0f0" stroke="#23676b" stroke-width="0.8" data-cell="1" data-row="8" data-col="4" />
    <rect x="91.0" y="224" width="12" height="12" fill="#d9f0f0" stroke="#23676b" stroke-width="0.8" data-cell="1" data-row="8" data-col="5" />
    <rect x="103.0" y="224" width="12" height="12" fill="#d9f0f0" stroke="#23676b" stroke-width="0.8" data-cell="1" data-row="8" data-col="6" />
    <rect x="115.0" y="224" width="12" height="12" fill="#d9f0f0" stroke="#23676b" stroke-width="0.8" data-cell="1" data-row="8" data-col="7" />
    <rect x="127.0" y="224" width="12" height="12" fill="#d9f0f0" stroke="#23676b" stroke-width="0.8" data-cell="1" data-row="8" data-col="8" />
    <rect x="139.0" y="224" width="12" height="12" fill="#d9f0f0" stroke="#23676b" stroke-width="0.8" data-cell="1" data-row="8" data-col="9" />
    <rect x="31.0" y="236" width="12" height="12" fill="#d9f0f0" stroke="#23676b" stroke-width="0.8" data-cell="1" data-row="9" data-col="0" />
    <rect x="43.0" y="236" width="12" height="12" fill="#d9f0f0" stroke="#23676b" stroke-width="0.8" data-cell="1" data-row="9" data-col="1" />
    <rect x="55.0" y="236" width="12" height="12" fill="#d9f0f0" stroke="#23676b" stroke-width="0.8" data-cell="1" data-row="9" data-col="2" />
    <rect x="67.0" y="236" width="12" height="12" fill="#d9f0f0" stroke="#23676b" stroke-width="0.8" data-cell="1" data-row="9" data-col="3" />
    <rect x="79.0" y="236" width="12" height="12" fill="#d9f0f0" stroke="#23676b" stroke-width="0.8" data-cell="1" data-row="9" data-col="4" />
    <rect x="91.0" y="236" width="12" height="12" fill="#d9f0f0" stroke="#23676b" stroke-width="0.8" data-cell="1" data-row="9" data-col="5" />
    <rect x="103.0" y="236" width="12" height="12" fill="#d9f0f0" stroke="#23676b" stroke-width="0.8" data-cell="1" data-row="9" data-col="6" />
    <rect x="115.0" y="236" width="12" height="12" fill="#d9f0f0" stroke="#23676b" stroke-width="0.8" data-cell="1" data-row="9" data-col="7" />
    <rect x="127.0" y="236" width="12" height="12" fill="#d9f0f0" stroke="#23676b" stroke-width="0.8" data-cell="1" data-row="9" data-col="8" />
    <rect x="139.0" y="236" width="12" height="12" fill="#d9f0f0" stroke="#23676b" stroke-width="0.8" data-cell="1" data-row="9" data-col="9" />
  </g>
  <g data-kind="hundred" data-value="100">
    <rect x="169.0" y="128" width="12" height="12" fill="#d9f0f0" stroke="#23676b" stroke-width="0.8" data-cell="1" data-row="0" data-col="0" />
    <rect x="181.0" y="128" width="12" height="12" fill="#d9f0f0" stroke="#23676b" stroke-width="0.8" data-cell="1" data-row="0" data-col="1" />
    <rect x="193.0" y="128" width="12" height="12" fill="#d9f0f0" stroke="#23676b" stroke-width="0.8" data-cell="1" data-row="0" data-col="2" />
    <rect x="205.0" y="128" width="12" height="12" fill="#d9f0f0" stroke="#23676b" stroke-width="0.8" data-cell="1" data-row="0" data-col="3" />
    <rect x="217.0" y="128" width="12" height="12" fill="#d9f0f0" stroke="#23676b" stroke-width="0.8" data-cell="1" data-row="0" data-col="4" />
    <rect x="229.0" y="128" width="12" height="12" fill="#d9f0f0" stroke="#23676b" stroke-width="0.8" data-cell="1" data-row="0" data-col="5" />
    <rect x="241.0" y="128" width="12" height="12" fill="#d9f0f0" stroke="#23676b" stroke-width="0.8" data-cell="1" data-row="0" data-col="6" />
    <rect x="253.0" y="128" width="12" height="12" fill="#d9f0f0" stroke="#23676b" stroke-width="0.8" data-cell="1" data-row="0" data-col="7" />
    <rect x="265.0" y="128" width="12" height="12" fill="#d9f0f0" stroke="#23676b" stroke-width="0.8" data-cell="1" data-row="0" data-col="8" />
    <rect x="277.0" y="128" width="12" height="12" fill="#d9f0f0" stroke="#23676b" stroke-width="0.8" data-cell="1" data-row="0" data-col="9" />
    <rect x="169.0" y="140" width="12" height="12" fill="#d9f0f0" stroke="#23676b" stroke-width="0.8" data-cell="1" data-row="1" data-col="0" />
    <rect x="181.0" y="140" width="12" height="12" fill="#d9f0f0" stroke="#23676b" stroke-width="0.8" data-cell="1" data-row="1" data-col="1" />
    <rect x="193.0" y="140" width="12" height="12" fill="#d9f0f0" stroke="#23676b" stroke-width="0.8" data-cell="1" data-row="1" data-col="2" />
    <rect x="205.0" y="140" width="12" height="12" fill="#d9f0f0" stroke="#23676b" stroke-width="0.8" data-cell="1" data-row="1" data-col="3" />
    <rect x="217.0" y="140" width="12" height="12" fill="#d9f0f0" stroke="#23676b" stroke-width="0.8" data-cell="1" data-row="1" data-col="4" />
    <rect x="229.0" y="140" width="12" height="12" fill="#d9f0f0" stroke="#23676b" stroke-width="0.8" data-cell="1" data-row="1" data-col="5" />
    <rect x="241.0" y="140" width="12" height="12" fill="#d9f0f0" stroke="#23676b" stroke-width="0.8" data-cell="1" data-row="1" data-col="6" />
    <rect x="253.0" y="140" width="12" height="12" fill="#d9f0f0" stroke="#23676b" stroke-width="0.8" data-cell="1" data-row="1" data-col="7" />
    <rect x="265.0" y="140" width="12" height="12" fill="#d9f0f0" stroke="#23676b" stroke-width="0.8" data-cell="1" data-row="1" data-col="8" />
    <rect x="277.0" y="140" width="12" height="12" fill="#d9f0f0" stroke="#23676b" stroke-width="0.8" data-cell="1" data-row="1" data-col="9" />
    <rect x="169.0" y="152" width="12" height="12" fill="#d9f0f0" stroke="#23676b" stroke-width="0.8" data-cell="1" data-row="2" data-col="0" />
    <rect x="181.0" y="152" width="12" height="12" fill="#d9f0f0" stroke="#23676b" stroke-width="0.8" data-cell="1" data-row="2" data-col="1" />
    <rect x="193.0" y="152" width="12" height="12" fill="#d9f0f0" stroke="#23676b" stroke-width="0.8" data-cell="1" data-row="2" data-col="2" />
    <rect x="205.0" y="152" width="12" height="12" fill="#d9f0f0" stroke="#23676b" stroke-width="0.8" data-cell="1" data-row="2" data-col="3" />
    <rect x="217.0" y="152" width="12" height="12" fill="#d9f0f0" stroke="#23676b" stroke-width="0.8" data-cell="1" data-row="2" data-col="4" />
    <rect x="229.0" y="152" width="12" height="12" fill="#d9f0f0" stroke="#23676b" stroke-width="0.8" data-cell="1" data-row="2" data-col="5" />
    <rect x="241.0" y="152" width="12" height="12" fill="#d9f0f0" stroke="#23676b" stroke-width="0.8" data-cell="1" data-row="2" data-col="6" />
    <rect x="253.0" y="152" width="12" height="12" fill="#d9f0f0" stroke="#23676b" stroke-width="0.8" data-cell="1" data-row="2" data-col="7" />
    <rect x="265.0" y="152" width="12" height="12" fill="#d9f0f0" stroke="#23676b" stroke-width="0.8" data-cell="1" data-row="2" data-col="8" />
    <rect x="277.0" y="152" width="12" height="12" fill="#d9f0f0" stroke="#23676b" stroke-width="0.8" data-cell="1" data-row="2" data-col="9" />
    <rect x="169.0" y="164" width="12" height="12" fill="#d9f0f0" stroke="#23676b" stroke-width="0.8" data-cell="1" data-row="3" data-col="0" />
    <rect x="181.0" y="164" width="12" height="12" fill="#d9f0f0" stroke="#23676b" stroke-width="0.8" data-cell="1" data-row="3" data-col="1" />
    <rect x="193.0" y="164" width="12" height="12" fill="#d9f0f0" stroke="#23676b" stroke-width="0.8" data-cell="1" data-row="3" data-col="2" />
    <rect x="205.0" y="164" width="12" height="12" fill="#d9f0f0" stroke="#23676b" stroke-width="0.8" data-cell="1" data-row="3" data-col="3" />
    <rect x="217.0" y="164" width="12" height="12" fill="#d9f0f0" stroke="#23676b" stroke-width="0.8" data-cell="1" data-row="3" data-col="4" />
    <rect x="229.0" y="164" width="12" height="12" fill="#d9f0f0" stroke="#23676b" stroke-width="0.8" data-cell="1" data-row="3" data-col="5" />
    <rect x="241.0" y="164" width="12" height="12" fill="#d9f0f0" stroke="#23676b" stroke-width="0.8" data-cell="1" data-row="3" data-col="6" />
    <rect x="253.0" y="164" width="12" height="12" fill="#d9f0f0" stroke="#23676b" stroke-width="0.8" data-cell="1" data-row="3" data-col="7" />
    <rect x="265.0" y="164" width="12" height="12" fill="#d9f0f0" stroke="#23676b" stroke-width="0.8" data-cell="1" data-row="3" data-col="8" />
    <rect x="277.0" y="164" width="12" height="12" fill="#d9f0f0" stroke="#23676b" stroke-width="0.8" data-cell="1" data-row="3" data-col="9" />
    <rect x="169.0" y="176" width="12" height="12" fill="#d9f0f0" stroke="#23676b" stroke-width="0.8" data-cell="1" data-row="4" data-col="0" />
    <rect x="181.0" y="176" width="12" height="12" fill="#d9f0f0" stroke="#23676b" stroke-width="0.8" data-cell="1" data-row="4" data-col="1" />
    <rect x="193.0" y="176" width="12" height="12" fill="#d9f0f0" stroke="#23676b" stroke-width="0.8" data-cell="1" data-row="4" data-col="2" />
    <rect x="205.0" y="176" width="12" height="12" fill="#d9f0f0" stroke="#23676b" stroke-width="0.8" data-cell="1" data-row="4" data-col="3" />
    <rect x="217.0" y="176" width="12" height="12" fill="#d9f0f0" stroke="#23676b" stroke-width="0.8" data-cell="1" data-row="4" data-col="4" />
    <rect x="229.0" y="176" width="12" height="12" fill="#d9f0f0" stroke="#23676b" stroke-width="0.8" data-cell="1" data-row="4" data-col="5" />
    <rect x="241.0" y="176" width="12" height="12" fill="#d9f0f0" stroke="#23676b" stroke-width="0.8" data-cell="1" data-row="4" data-col="6" />
    <rect x="253.0" y="176" width="12" height="12" fill="#d9f0f0" stroke="#23676b" stroke-width="0.8" data-cell="1" data-row="4" data-col="7" />
    <rect x="265.0" y="176" width="12" height="12" fill="#d9f0f0" stroke="#23676b" stroke-width="0.8" data-cell="1" data-row="4" data-col="8" />
    <rect x="277.0" y="176" width="12" height="12" fill="#d9f0f0" stroke="#23676b" stroke-width="0.8" data-cell="1" data-row="4" data-col="9" />
    <rect x="169.0" y="188" width="12" height="12" fill="#d9f0f0" stroke="#23676b" stroke-width="0.8" data-cell="1" data-row="5" data-col="0" />
    <rect x="181.0" y="188" width="12" height="12" fill="#d9f0f0" stroke="#23676b" stroke-width="0.8" data-cell="1" data-row="5" data-col="1" />
    <rect x="193.0" y="188" width="12" height="12" fill="#d9f0f0" stroke="#23676b" stroke-width="0.8" data-cell="1" data-row="5" data-col="2" />
    <rect x="205.0" y="188" width="12" height="12" fill="#d9f0f0" stroke="#23676b" stroke-width="0.8" data-cell="1" data-row="5" data-col="3" />
    <rect x="217.0" y="188" width="12" height="12" fill="#d9f0f0" stroke="#23676b" stroke-width="0.8" data-cell="1" data-row="5" data-col="4" />
    <rect x="229.0" y="188" width="12" height="12" fill="#d9f0f0" stroke="#23676b" stroke-width="0.8" data-cell="1" data-row="5" data-col="5" />
    <rect x="241.0" y="188" width="12" height="12" fill="#d9f0f0" stroke="#23676b" stroke-width="0.8" data-cell="1" data-row="5" data-col="6" />
    <rect x="253.0" y="188" width="12" height="12" fill="#d9f0f0" stroke="#23676b" stroke-width="0.8" data-cell="1" data-row="5" data-col="7" />
    <rect x="265.0" y="188" width="12" height="12" fill="#d9f0f0" stroke="#23676b" stroke-width="0.8" data-cell="1" data-row="5" data-col="8" />
    <rect x="277.0" y="188" width="12" height="12" fill="#d9f0f0" stroke="#23676b" stroke-width="0.8" data-cell="1" data-row="5" data-col="9" />
    <rect x="169.0" y="200" width="12" height="12" fill="#d9f0f0" stroke="#23676b" stroke-width="0.8" data-cell="1" data-row="6" data-col="0" />
    <rect x="181.0" y="200" width="12" height="12" fill="#d9f0f0" stroke="#23676b" stroke-width="0.8" data-cell="1" data-row="6" data-col="1" />
    <rect x="193.0" y="200" width="12" height="12" fill="#d9f0f0" stroke="#23676b" stroke-width="0.8" data-cell="1" data-row="6" data-col="2" />
    <rect x="205.0" y="200" width="12" height="12" fill="#d9f0f0" stroke="#23676b" stroke-width="0.8" data-cell="1" data-row="6" data-col="3" />
    <rect x="217.0" y="200" width="12" height="12" fill="#d9f0f0" stroke="#23676b" stroke-width="0.8" data-cell="1" data-row="6" data-col="4" />
    <rect x="229.0" y="200" width="12" height="12" fill="#d9f0f0" stroke="#23676b" stroke-width="0.8" data-cell="1" data-row="6" data-col="5" />
    <rect x="241.0" y="200" width="12" height="12" fill="#d9f0f0" stroke="#23676b" stroke-width="0.8" data-cell="1" data-row="6" data-col="6" />
    <rect x="253.0" y="200" width="12" height="12" fill="#d9f0f0" stroke="#23676b" stroke-width="0.8" data-cell="1" data-row="6" data-col="7" />
    <rect x="265.0" y="200" width="12" height="12" fill="#d9f0f0" stroke="#23676b" stroke-width="0.8" data-cell="1" data-row="6" data-col="8" />
    <rect x="277.0" y="200" width="12" height="12" fill="#d9f0f0" stroke="#23676b" stroke-width="0.8" data-cell="1" data-row="6" data-col="9" />
    <rect x="169.0" y="212" width="12" height="12" fill="#d9f0f0" stroke="#23676b" stroke-width="0.8" data-cell="1" data-row="7" data-col="0" />
    <rect x="181.0" y="212" width="12" height="12" fill="#d9f0f0" stroke="#23676b" stroke-width="0.8" data-cell="1" data-row="7" data-col="1" />
    <rect x="193.0" y="212" width="12" height="12" fill="#d9f0f0" stroke="#23676b" stroke-width="0.8" data-cell="1" data-row="7" data-col="2" />
    <rect x="205.0" y="212" width="12" height="12" fill="#d9f0f0" stroke="#23676b" stroke-width="0.8" data-cell="1" data-row="7" data-col="3" />
    <rect x="217.0" y="212" width="12" height="12" fill="#d9f0f0" stroke="#23676b" stroke-width="0.8" data-cell="1" data-row="7" data-col="4" />
    <rect x="229.0" y="212" width="12" height="12" fill="#d9f0f0" stroke="#23676b" stroke-width="0.8" data-cell="1" data-row="7" data-col="5" />
    <rect x="241.0" y="212" width="12" height="12" fill="#d9f0f0" stroke="#23676b" stroke-width="0.8" data-cell="1" data-row="7" data-col="6" />
    <rect x="253.0" y="212" width="12" height="12" fill="#d9f0f0" stroke="#23676b" stroke-width="0.8" data-cell="1" data-row="7" data-col="7" />
    <rect x="265.0" y="212" width="12" height="12" fill="#d9f0f0" stroke="#23676b" stroke-width="0.8" data-cell="1" data-row="7" data-col="8" />
    <rect x="277.0" y="212" width="12" height="12" fill="#d9f0f0" stroke="#23676b" stroke-width="0.8" data-cell="1" data-row="7" data-col="9" />
    <rect x="169.0" y="224" width="12" height="12" fill="#d9f0f0" stroke="#23676b" stroke-width="0.8" data-cell="1" data-row="8" data-col="0" />
    <rect x="181.0" y="224" width="12" height="12" fill="#d9f0f0" stroke="#23676b" stroke-width="0.8" data-cell="1" data-row="8" data-col="1" />
    <rect x="193.0" y="224" width="12" height="12" fill="#d9f0f0" stroke="#23676b" stroke-width="0.8" data-cell="1" data-row="8" data-col="2" />
    <rect x="205.0" y="224" width="12" height="12" fill="#d9f0f0" stroke="#23676b" stroke-width="0.8" data-cell="1" data-row="8" data-col="3" />
    <rect x="217.0" y="224" width="12" height="12" fill="#d9f0f0" stroke="#23676b" stroke-width="0.8" data-cell="1" data-row="8" data-col="4" />
    <rect x="229.0" y="224" width="12" height="12" fill="#d9f0f0" stroke="#23676b" stroke-width="0.8" data-cell="1" data-row="8" data-col="5" />
    <rect x="241.0" y="224" width="12" height="12" fill="#d9f0f0" stroke="#23676b" stroke-width="0.8" data-cell="1" data-row="8" data-col="6" />
    <rect x="253.0" y="224" width="12" height="12" fill="#d9f0f0" stroke="#23676b" stroke-width="0.8" data-cell="1" data-row="8" data-col="7" />
    <rect x="265.0" y="224" width="12" height="12" fill="#d9f0f0" stroke="#23676b" stroke-width="0.8" data-cell="1" data-row="8" data-col="8" />
    <rect x="277.0" y="224" width="12" height="12" fill="#d9f0f0" stroke="#23676b" stroke-width="0.8" data-cell="1" data-row="8" data-col="9" />
    <rect x="169.0" y="236" width="12" height="12" fill="#d9f0f0" stroke="#23676b" stroke-width="0.8" data-cell="1" data-row="9" data-col="0" />
    <rect x="181.0" y="236" width="12" height="12" fill="#d9f0f0" stroke="#23676b" stroke-width="0.8" data-cell="1" data-row="9" data-col="1" />
    <rect x="193.0" y="236" width="12" height="12" fill="#d9f0f0" stroke="#23676b" stroke-width="0.8" data-cell="1" data-row="9" data-col="2" />
    <rect x="205.0" y="236" width="12" height="12" fill="#d9f0f0" stroke="#23676b" stroke-width="0.8" data-cell="1" data-row="9" data-col="3" />
    <rect x="217.0" y="236" width="12" height="12" fill="#d9f0f0" stroke="#23676b" stroke-width="0.8" data-cell="1" data-row="9" data-col="4" />
    <rect x="229.0" y="236" width="12" height="12" fill="#d9f0f0" stroke="#23676b" stroke-width="0.8" data-cell="1" data-row="9" data-col="5" />
    <rect x="241.0" y="236" width="12" height="12" fill="#d9f0f0" stroke="#23676b" stroke-width="0.8" data-cell="1" data-row="9" data-col="6" />
    <rect x="253.0" y="236" width="12" height="12" fill="#d9f0f0" stroke="#23676b" stroke-width="0.8" data-cell="1" data-row="9" data-col="7" />
    <rect x="265.0" y="236" width="12" height="12" fill="#d9f0f0" stroke="#23676b" stroke-width="0.8" data-cell="1" data-row="9" data-col="8" />
    <rect x="277.0" y="236" width="12" height="12" fill="#d9f0f0" stroke="#23676b" stroke-width="0.8" data-cell="1" data-row="9" data-col="9" />
  </g>
  <text x="480" y="40" font-size="27" fill="#153a4b" text-anchor="middle">పదులు</text>
  <text x="480" y="65" font-size="17" fill="#526573" text-anchor="middle">tens</text>
  <g data-kind="ten" data-value="10">
    <rect x="420" y="110" width="12" height="12" fill="#fff0c8" stroke="#8b6109" stroke-width="0.8" data-cell="1" data-row="0" data-col="0" />
    <rect x="432" y="110" width="12" height="12" fill="#fff0c8" stroke="#8b6109" stroke-width="0.8" data-cell="1" data-row="0" data-col="1" />
    <rect x="444" y="110" width="12" height="12" fill="#fff0c8" stroke="#8b6109" stroke-width="0.8" data-cell="1" data-row="0" data-col="2" />
    <rect x="456" y="110" width="12" height="12" fill="#fff0c8" stroke="#8b6109" stroke-width="0.8" data-cell="1" data-row="0" data-col="3" />
    <rect x="468" y="110" width="12" height="12" fill="#fff0c8" stroke="#8b6109" stroke-width="0.8" data-cell="1" data-row="0" data-col="4" />
    <rect x="480" y="110" width="12" height="12" fill="#fff0c8" stroke="#8b6109" stroke-width="0.8" data-cell="1" data-row="0" data-col="5" />
    <rect x="492" y="110" width="12" height="12" fill="#fff0c8" stroke="#8b6109" stroke-width="0.8" data-cell="1" data-row="0" data-col="6" />
    <rect x="504" y="110" width="12" height="12" fill="#fff0c8" stroke="#8b6109" stroke-width="0.8" data-cell="1" data-row="0" data-col="7" />
    <rect x="516" y="110" width="12" height="12" fill="#fff0c8" stroke="#8b6109" stroke-width="0.8" data-cell="1" data-row="0" data-col="8" />
    <rect x="528" y="110" width="12" height="12" fill="#fff0c8" stroke="#8b6109" stroke-width="0.8" data-cell="1" data-row="0" data-col="9" />
  </g>
  <g data-kind="ten" data-value="10">
    <rect x="420" y="136" width="12" height="12" fill="#fff0c8" stroke="#8b6109" stroke-width="0.8" data-cell="1" data-row="0" data-col="0" />
    <rect x="432" y="136" width="12" height="12" fill="#fff0c8" stroke="#8b6109" stroke-width="0.8" data-cell="1" data-row="0" data-col="1" />
    <rect x="444" y="136" width="12" height="12" fill="#fff0c8" stroke="#8b6109" stroke-width="0.8" data-cell="1" data-row="0" data-col="2" />
    <rect x="456" y="136" width="12" height="12" fill="#fff0c8" stroke="#8b6109" stroke-width="0.8" data-cell="1" data-row="0" data-col="3" />
    <rect x="468" y="136" width="12" height="12" fill="#fff0c8" stroke="#8b6109" stroke-width="0.8" data-cell="1" data-row="0" data-col="4" />
    <rect x="480" y="136" width="12" height="12" fill="#fff0c8" stroke="#8b6109" stroke-width="0.8" data-cell="1" data-row="0" data-col="5" />
    <rect x="492" y="136" width="12" height="12" fill="#fff0c8" stroke="#8b6109" stroke-width="0.8" data-cell="1" data-row="0" data-col="6" />
    <rect x="504" y="136" width="12" height="12" fill="#fff0c8" stroke="#8b6109" stroke-width="0.8" data-cell="1" data-row="0" data-col="7" />
    <rect x="516" y="136" width="12" height="12" fill="#fff0c8" stroke="#8b6109" stroke-width="0.8" data-cell="1" data-row="0" data-col="8" />
    <rect x="528" y="136" width="12" height="12" fill="#fff0c8" stroke="#8b6109" stroke-width="0.8" data-cell="1" data-row="0" data-col="9" />
  </g>
  <g data-kind="ten" data-value="10">
    <rect x="420" y="162" width="12" height="12" fill="#fff0c8" stroke="#8b6109" stroke-width="0.8" data-cell="1" data-row="0" data-col="0" />
    <rect x="432" y="162" width="12" height="12" fill="#fff0c8" stroke="#8b6109" stroke-width="0.8" data-cell="1" data-row="0" data-col="1" />
    <rect x="444" y="162" width="12" height="12" fill="#fff0c8" stroke="#8b6109" stroke-width="0.8" data-cell="1" data-row="0" data-col="2" />
    <rect x="456" y="162" width="12" height="12" fill="#fff0c8" stroke="#8b6109" stroke-width="0.8" data-cell="1" data-row="0" data-col="3" />
    <rect x="468" y="162" width="12" height="12" fill="#fff0c8" stroke="#8b6109" stroke-width="0.8" data-cell="1" data-row="0" data-col="4" />
    <rect x="480" y="162" width="12" height="12" fill="#fff0c8" stroke="#8b6109" stroke-width="0.8" data-cell="1" data-row="0" data-col="5" />
    <rect x="492" y="162" width="12" height="12" fill="#fff0c8" stroke="#8b6109" stroke-width="0.8" data-cell="1" data-row="0" data-col="6" />
    <rect x="504" y="162" width="12" height="12" fill="#fff0c8" stroke="#8b6109" stroke-width="0.8" data-cell="1" data-row="0" data-col="7" />
    <rect x="516" y="162" width="12" height="12" fill="#fff0c8" stroke="#8b6109" stroke-width="0.8" data-cell="1" data-row="0" data-col="8" />
    <rect x="528" y="162" width="12" height="12" fill="#fff0c8" stroke="#8b6109" stroke-width="0.8" data-cell="1" data-row="0" data-col="9" />
  </g>
  <text x="800" y="40" font-size="27" fill="#153a4b" text-anchor="middle">ఒకట్లు</text>
  <text x="800" y="65" font-size="17" fill="#526573" text-anchor="middle">ones</text>
  <g data-kind="one" data-value="1">
    <rect x="758" y="146" width="12" height="12" fill="#fbe0e5" stroke="#8e3b4d" stroke-width="0.8" data-cell="1" data-row="0" data-col="0" />
  </g>
  <g data-kind="one" data-value="1">
    <rect x="782" y="146" width="12" height="12" fill="#fbe0e5" stroke="#8e3b4d" stroke-width="0.8" data-cell="1" data-row="0" data-col="0" />
  </g>
  <g data-kind="one" data-value="1">
    <rect x="806" y="146" width="12" height="12" fill="#fbe0e5" stroke="#8e3b4d" stroke-width="0.8" data-cell="1" data-row="0" data-col="0" />
  </g>
  <g data-kind="one" data-value="1">
    <rect x="830" y="146" width="12" height="12" fill="#fbe0e5" stroke="#8e3b4d" stroke-width="0.8" data-cell="1" data-row="0" data-col="0" />
  </g>
  <g data-kind="one" data-value="1">
    <rect x="758" y="176" width="12" height="12" fill="#fbe0e5" stroke="#8e3b4d" stroke-width="0.8" data-cell="1" data-row="0" data-col="0" />
  </g>
  <g data-kind="one" data-value="1">
    <rect x="782" y="176" width="12" height="12" fill="#fbe0e5" stroke="#8e3b4d" stroke-width="0.8" data-cell="1" data-row="0" data-col="0" />
  </g>
  <g data-kind="one" data-value="1">
    <rect x="806" y="176" width="12" height="12" fill="#fbe0e5" stroke="#8e3b4d" stroke-width="0.8" data-cell="1" data-row="0" data-col="0" />
  </g>
</svg>
